<mxfile host="app.diagrams.net" modified="2024-07-15T07:54:22.732Z" agent="Mozilla/5.0 (Windows NT 10.0; Win64; x64) AppleWebKit/537.36 (KHTML, like Gecko) Chrome/126.0.0.0 Safari/537.36" etag="GwchSwhsDhBCt1ihwty_" version="24.5.3" type="github">
  <diagram name="第 1 页" id="DM-KIrJjknosANJa-6J8">
    <mxGraphModel dx="1834" dy="746" grid="0" gridSize="10" guides="1" tooltips="1" connect="1" arrows="1" fold="1" page="0" pageScale="1" pageWidth="827" pageHeight="1169" background="#EDEDED" math="0" shadow="0">
      <root>
        <mxCell id="0" />
        <mxCell id="1" parent="0" />
        <mxCell id="yu92lfb1kVJGWA3T8rP4-6" value="" style="rounded=0;whiteSpace=wrap;html=1;" vertex="1" parent="1">
          <mxGeometry x="-82" y="176" width="904" height="60" as="geometry" />
        </mxCell>
        <mxCell id="yu92lfb1kVJGWA3T8rP4-7" value="行业应用" style="text;html=1;align=center;verticalAlign=middle;whiteSpace=wrap;rounded=0;fontStyle=1;fontSize=16;" vertex="1" parent="1">
          <mxGeometry x="-61" y="191" width="78" height="30" as="geometry" />
        </mxCell>
        <mxCell id="yu92lfb1kVJGWA3T8rP4-8" value="" style="rounded=0;whiteSpace=wrap;html=1;" vertex="1" parent="1">
          <mxGeometry x="-82" y="265" width="614" height="119" as="geometry" />
        </mxCell>
        <mxCell id="yu92lfb1kVJGWA3T8rP4-9" value="上层应用" style="text;html=1;align=center;verticalAlign=middle;whiteSpace=wrap;rounded=0;fontStyle=1;fontSize=16;" vertex="1" parent="1">
          <mxGeometry x="-61" y="312" width="78" height="30" as="geometry" />
        </mxCell>
        <mxCell id="yu92lfb1kVJGWA3T8rP4-10" value="" style="rounded=0;whiteSpace=wrap;html=1;" vertex="1" parent="1">
          <mxGeometry x="-82" y="413" width="614" height="119" as="geometry" />
        </mxCell>
        <mxCell id="yu92lfb1kVJGWA3T8rP4-11" value="AI模型" style="text;html=1;align=center;verticalAlign=middle;whiteSpace=wrap;rounded=0;fontStyle=1;fontSize=16;" vertex="1" parent="1">
          <mxGeometry x="-61" y="460" width="78" height="30" as="geometry" />
        </mxCell>
        <mxCell id="yu92lfb1kVJGWA3T8rP4-12" value="" style="rounded=0;whiteSpace=wrap;html=1;" vertex="1" parent="1">
          <mxGeometry x="-81" y="560" width="612" height="60" as="geometry" />
        </mxCell>
        <mxCell id="yu92lfb1kVJGWA3T8rP4-13" value="异构计算架构" style="text;html=1;align=center;verticalAlign=middle;whiteSpace=wrap;rounded=0;fontStyle=1;fontSize=16;" vertex="1" parent="1">
          <mxGeometry x="-60" y="575" width="104" height="30" as="geometry" />
        </mxCell>
        <mxCell id="yu92lfb1kVJGWA3T8rP4-14" value="金融、交通、政企等行业应用" style="text;html=1;align=center;verticalAlign=middle;whiteSpace=wrap;rounded=0;" vertex="1" parent="1">
          <mxGeometry x="120" y="191" width="542" height="30" as="geometry" />
        </mxCell>
        <mxCell id="yu92lfb1kVJGWA3T8rP4-15" value="" style="rounded=0;whiteSpace=wrap;html=1;" vertex="1" parent="1">
          <mxGeometry x="550" y="265" width="79" height="355" as="geometry" />
        </mxCell>
        <mxCell id="yu92lfb1kVJGWA3T8rP4-16" value="" style="rounded=0;whiteSpace=wrap;html=1;" vertex="1" parent="1">
          <mxGeometry x="646" y="265" width="79" height="355" as="geometry" />
        </mxCell>
        <mxCell id="yu92lfb1kVJGWA3T8rP4-17" value="" style="rounded=0;whiteSpace=wrap;html=1;" vertex="1" parent="1">
          <mxGeometry x="742" y="265" width="79" height="355" as="geometry" />
        </mxCell>
        <mxCell id="yu92lfb1kVJGWA3T8rP4-18" value="AI客服" style="rounded=1;whiteSpace=wrap;html=1;" vertex="1" parent="1">
          <mxGeometry x="50" y="295" width="90" height="59" as="geometry" />
        </mxCell>
        <mxCell id="yu92lfb1kVJGWA3T8rP4-19" value="意图识别" style="rounded=1;whiteSpace=wrap;html=1;" vertex="1" parent="1">
          <mxGeometry x="157" y="295" width="90" height="59" as="geometry" />
        </mxCell>
        <mxCell id="yu92lfb1kVJGWA3T8rP4-20" value="方案生成" style="rounded=1;whiteSpace=wrap;html=1;" vertex="1" parent="1">
          <mxGeometry x="263" y="295" width="90" height="59" as="geometry" />
        </mxCell>
        <mxCell id="yu92lfb1kVJGWA3T8rP4-21" value="报告生成" style="rounded=1;whiteSpace=wrap;html=1;" vertex="1" parent="1">
          <mxGeometry x="368" y="295" width="90" height="59" as="geometry" />
        </mxCell>
        <mxCell id="yu92lfb1kVJGWA3T8rP4-22" value="....." style="text;html=1;align=center;verticalAlign=middle;whiteSpace=wrap;rounded=0;" vertex="1" parent="1">
          <mxGeometry x="462" y="310" width="60" height="30" as="geometry" />
        </mxCell>
        <mxCell id="yu92lfb1kVJGWA3T8rP4-24" value="&lt;h1 style=&quot;box-sizing: border-box; margin-right: 0px; margin-bottom: var(--base-size-16); margin-left: 0px; font-weight: var(--base-text-weight-semibold, 600); line-height: 1.25; padding-bottom: 0.3em; border-bottom: 1px solid var(--borderColor-muted, var(--color-border-muted)); color: rgb(31, 35, 40); font-family: -apple-system, BlinkMacSystemFont, &amp;quot;Segoe UI&amp;quot;, &amp;quot;Noto Sans&amp;quot;, Helvetica, Arial, sans-serif, &amp;quot;Apple Color Emoji&amp;quot;, &amp;quot;Segoe UI Emoji&amp;quot;; text-align: start; margin-top: 0px !important;&quot; dir=&quot;auto&quot; class=&quot;heading-element&quot; tabindex=&quot;-1&quot;&gt;ChatGLM-6B&lt;/h1&gt;" style="rounded=1;whiteSpace=wrap;html=1;" vertex="1" parent="1">
          <mxGeometry x="60" y="443" width="165" height="59" as="geometry" />
        </mxCell>
        <mxCell id="yu92lfb1kVJGWA3T8rP4-26" value="&lt;h1 style=&quot;box-sizing: border-box; margin-right: 0px; margin-bottom: var(--base-size-16); margin-left: 0px; font-weight: var(--base-text-weight-semibold, 600); line-height: 1.25; padding-bottom: 0.3em; border-bottom: 1px solid var(--borderColor-muted, var(--color-border-muted)); color: rgb(31, 35, 40); font-family: -apple-system, BlinkMacSystemFont, &amp;quot;Segoe UI&amp;quot;, &amp;quot;Noto Sans&amp;quot;, Helvetica, Arial, sans-serif, &amp;quot;Apple Color Emoji&amp;quot;, &amp;quot;Segoe UI Emoji&amp;quot;; text-align: start; margin-top: 0px !important;&quot; dir=&quot;auto&quot; class=&quot;heading-element&quot; tabindex=&quot;-1&quot;&gt;通义千问&lt;/h1&gt;" style="rounded=1;whiteSpace=wrap;html=1;" vertex="1" parent="1">
          <mxGeometry x="271" y="443" width="165" height="59" as="geometry" />
        </mxCell>
      </root>
    </mxGraphModel>
  </diagram>
</mxfile>
